<?xml version="1.0" encoding="UTF-8"?>
<svg xmlns="http://www.w3.org/2000/svg" xmlns:xlink="http://www.w3.org/1999/xlink" width="3000" height="3000" viewBox="0 0 3000 3000">
<defs>
<clipPath id="clip-0">
<path clip-rule="nonzero" d="M 1085 732 L 2659 732 L 2659 2130 L 1085 2130 Z M 1085 732 "/>
</clipPath>
<clipPath id="clip-1">
<path clip-rule="evenodd" d="M 1743.488281 843.828125 C 1939.800781 420.5 2683.398438 728.480469 2668.578125 1338.460938 C 2657.140625 1809.121094 2207.199219 2139.699219 1740.558594 2139.699219 C 1273.921875 2139.699219 895.066406 1757.46875 895.066406 1286.671875 C 895.066406 815.878906 1422.988281 1534.96875 1743.488281 843.828125 Z M 1743.488281 843.828125 "/>
</clipPath>
<clipPath id="clip-2">
<path clip-rule="nonzero" d="M 316 1754 L 761 1754 L 761 2200 L 316 2200 Z M 316 1754 "/>
</clipPath>
<clipPath id="clip-3">
<path clip-rule="evenodd" d="M 538.421875 1754.429688 C 415.695312 1754.429688 316.058594 1854.070312 316.058594 1976.789062 C 316.058594 2099.519531 415.695312 2199.15625 538.421875 2199.15625 C 661.148438 2199.15625 760.785156 2099.519531 760.785156 1976.789062 C 760.785156 1854.070312 661.148438 1754.429688 538.421875 1754.429688 Z M 538.421875 1754.429688 "/>
</clipPath>
<clipPath id="clip-4">
<path clip-rule="nonzero" d="M 1120 530 L 1719 530 L 1719 1433 L 1120 1433 Z M 1120 530 "/>
</clipPath>
<clipPath id="clip-5">
<path clip-rule="evenodd" d="M 1981.078125 1107.328125 C 2042.878906 1160.75 1943.78125 1335.238281 1765.550781 1408.101562 C 1634.898438 1461.511719 1311.808594 1428.230469 1206.480469 1312.890625 C 1101.148438 1197.550781 1131.589844 867.859375 1133.589844 716.058594 C 1135.679688 557.269531 1076.589844 480.578125 1192.820312 539.171875 L 1229 565.859375 C 1229 565.859375 1269.679688 517.269531 1296.601562 539.730469 C 1334.238281 571.109375 1230.328125 675.128906 1230.328125 675.128906 L 1369.898438 1124.359375 C 1369.898438 1124.359375 1874.988281 1015.640625 1981.078125 1107.328125 Z M 1981.078125 1107.328125 "/>
</clipPath>
<clipPath id="clip-6">
<path clip-rule="nonzero" d="M 1478 975 L 2000 975 L 2000 1433 L 1478 1433 Z M 1478 975 "/>
</clipPath>
<clipPath id="clip-7">
<path clip-rule="evenodd" d="M 1981.078125 1107.328125 C 2042.878906 1160.75 1943.78125 1335.238281 1765.550781 1408.101562 C 1634.898438 1461.511719 1311.808594 1428.230469 1206.480469 1312.890625 C 1101.148438 1197.550781 1131.589844 867.859375 1133.589844 716.058594 C 1135.679688 557.269531 1076.589844 480.578125 1192.820312 539.171875 L 1229 565.859375 C 1229 565.859375 1269.679688 517.269531 1296.601562 539.730469 C 1334.238281 571.109375 1230.328125 675.128906 1230.328125 675.128906 L 1369.898438 1124.359375 C 1369.898438 1124.359375 1874.988281 1015.640625 1981.078125 1107.328125 Z M 1981.078125 1107.328125 "/>
</clipPath>
<clipPath id="clip-8">
<path clip-rule="nonzero" d="M 1484 1238 L 1898 1238 L 1898 1433 L 1484 1433 Z M 1484 1238 "/>
</clipPath>
<clipPath id="clip-9">
<path clip-rule="evenodd" d="M 1981.078125 1107.328125 C 2042.878906 1160.75 1943.78125 1335.238281 1765.550781 1408.101562 C 1634.898438 1461.511719 1311.808594 1428.230469 1206.480469 1312.890625 C 1101.148438 1197.550781 1131.589844 867.859375 1133.589844 716.058594 C 1135.679688 557.269531 1076.589844 480.578125 1192.820312 539.171875 L 1229 565.859375 C 1229 565.859375 1269.679688 517.269531 1296.601562 539.730469 C 1334.238281 571.109375 1230.328125 675.128906 1230.328125 675.128906 L 1369.898438 1124.359375 C 1369.898438 1124.359375 1874.988281 1015.640625 1981.078125 1107.328125 Z M 1981.078125 1107.328125 "/>
</clipPath>
<clipPath id="clip-10">
<path clip-rule="nonzero" d="M 1624 1301 L 2307 1301 L 2307 1772 L 1624 1772 Z M 1624 1301 "/>
</clipPath>
<clipPath id="clip-11">
<path clip-rule="evenodd" d="M 1772.308594 1100.269531 C 1884.789062 960.160156 2236.378906 1040.679688 2310.480469 1130.480469 C 2384.578125 1220.289062 2216.898438 1639.089844 2216.898438 1639.089844 C 2245.5 2049.542969 2010.449219 2206.484375 1521.511719 2113.214844 C 1521.511719 2113.214844 1640.808594 1264.058594 1772.308594 1100.269531 Z M 1772.308594 1100.269531 "/>
</clipPath>
<clipPath id="clip-12">
<path clip-rule="nonzero" d="M 1949 934 L 2121 934 L 2121 1049 L 1949 1049 Z M 1949 934 "/>
</clipPath>
<clipPath id="clip-13">
<path clip-rule="evenodd" d="M 1977.03125 934.269531 L 2119.429688 940.800781 C 2097.429688 978.558594 2096.769531 1016.628906 2123.5 1055.089844 C 2012.46875 1250.300781 1951.308594 1261.28125 1948.941406 1055.089844 C 1978.121094 1012.878906 1985.570312 972.789062 1977.03125 934.269531 Z M 1977.03125 934.269531 "/>
</clipPath>
<clipPath id="clip-14">
<path clip-rule="nonzero" d="M 1932 780 L 2101 780 L 2101 908 L 1932 908 Z M 1932 780 "/>
</clipPath>
<clipPath id="clip-15">
<path clip-rule="evenodd" d="M 2028.171875 743.328125 C 1975.519531 743.328125 1932.769531 801.800781 1932.769531 873.820312 C 1932.769531 945.839844 1948.921875 1004.308594 2001.558594 1004.308594 C 2054.210938 1004.308594 2123.558594 945.839844 2123.558594 873.820312 C 2123.558594 801.800781 2080.808594 743.328125 2028.171875 743.328125 Z M 2028.171875 743.328125 "/>
</clipPath>
<clipPath id="clip-16">
<path clip-rule="nonzero" d="M 1703 1584 L 2531 1584 L 2531 2105 L 1703 2105 Z M 1703 1584 "/>
</clipPath>
<clipPath id="clip-17">
<path clip-rule="evenodd" d="M 2172.109375 1123.921875 C 2220.199219 1053.308594 2421.960938 1145.449219 2492.660156 1338.910156 C 2544.488281 1480.730469 2557.71875 1797.949219 2433.238281 1928.320312 C 2284.550781 2084.050781 2121.050781 1994.410156 1999.53125 2085.417969 C 1929.699219 2137.722656 1679.140625 2073.976562 1705.820312 1993.558594 C 1736.308594 2015.382812 1756.210938 2015.800781 1769.378906 2002.613281 C 1769.378906 2002.613281 1748.429688 1921.738281 1783.109375 1909.71875 C 1838.738281 1890.441406 1813.609375 2004.5625 1951.21875 1943.820312 C 1994.839844 1924.558594 2204.160156 1762.550781 2204.160156 1762.550781 C 2204.160156 1762.550781 2124.03125 1194.519531 2172.109375 1123.921875 Z M 2172.109375 1123.921875 "/>
</clipPath>
<clipPath id="clip-18">
<path clip-rule="nonzero" d="M 2060 1100 L 2531 1100 L 2531 1650 L 2060 1650 Z M 2060 1100 "/>
</clipPath>
<clipPath id="clip-19">
<path clip-rule="evenodd" d="M 2172.109375 1123.921875 C 2220.199219 1053.308594 2421.960938 1145.449219 2492.660156 1338.910156 C 2544.488281 1480.730469 2557.71875 1797.949219 2433.238281 1928.320312 C 2284.550781 2084.050781 2121.050781 1994.410156 1999.53125 2085.417969 C 1929.699219 2137.722656 1679.140625 2073.976562 1705.820312 1993.558594 C 1736.308594 2015.382812 1756.210938 2015.800781 1769.378906 2002.613281 C 1769.378906 2002.613281 1748.429688 1921.738281 1783.109375 1909.71875 C 1838.738281 1890.441406 1813.609375 2004.5625 1951.21875 1943.820312 C 1994.839844 1924.558594 2204.160156 1762.550781 2204.160156 1762.550781 C 2204.160156 1762.550781 2124.03125 1194.519531 2172.109375 1123.921875 Z M 2172.109375 1123.921875 "/>
</clipPath>
</defs>
<path fill-rule="evenodd" fill="rgb(54.492188%, 53.318787%, 94.53125%)" fill-opacity="1" d="M 1743.488281 843.828125 C 1939.800781 420.5 2683.398438 728.480469 2668.578125 1338.460938 C 2657.140625 1809.121094 2207.199219 2139.699219 1740.558594 2139.699219 C 1273.921875 2139.699219 895.066406 1757.46875 895.066406 1286.671875 C 895.066406 815.878906 1422.988281 1534.96875 1743.488281 843.828125 "/>
<g clip-path="url(#clip-0)">
<g clip-path="url(#clip-1)">
<path fill-rule="evenodd" fill="rgb(100%, 100%, 100%)" fill-opacity="1" d="M 2365.039062 1300.53125 L 2202.5 1625.609375 C 2202.039062 1626.539062 2201.101562 1627.121094 2200.058594 1627.121094 C 2199.269531 1627.121094 2198.53125 1626.769531 2198.019531 1626.191406 L 2198.019531 1754.070312 C 2198.019531 1755.570312 2196.789062 1756.800781 2195.289062 1756.800781 L 2158.441406 1756.800781 C 2163.148438 1778.140625 2165.640625 1800.328125 2165.640625 1823.089844 C 2165.640625 1992.328125 2028.238281 2129.734375 1859 2129.734375 C 1804.078125 2129.734375 1752.519531 2115.265625 1707.910156 2089.933594 L 1707.910156 2114.414062 C 1707.910156 2115.921875 1706.691406 2117.140625 1705.179688 2117.140625 L 1141.578125 2117.140625 C 1140.078125 2117.140625 1138.851562 2115.921875 1138.851562 2114.414062 L 1138.851562 1551.558594 C 1138.851562 1550.050781 1140.078125 1548.828125 1141.578125 1548.828125 L 1379.46875 1548.828125 L 1410.941406 1485.890625 C 1384.910156 1472.589844 1360.960938 1455.808594 1339.710938 1436.148438 L 1293.210938 1529.148438 C 1292.738281 1530.070312 1291.800781 1530.660156 1290.769531 1530.660156 C 1289.730469 1530.660156 1288.789062 1530.070312 1288.328125 1529.148438 L 1086.21875 1124.941406 C 1085.800781 1124.101562 1085.851562 1123.089844 1086.339844 1122.289062 C 1086.839844 1121.488281 1087.71875 1121 1088.660156 1121 L 1248.390625 1121 C 1284.601562 985.53125 1408.261719 885.648438 1555.070312 885.648438 C 1691.398438 885.648438 1807.769531 971.78125 1852.691406 1092.570312 L 1931.101562 1092.570312 L 1880.921875 992.199219 C 1880.5 991.351562 1880.539062 990.351562 1881.039062 989.550781 C 1881.539062 988.738281 1882.410156 988.25 1883.359375 988.25 L 2036.609375 988.25 L 2036.609375 734.949219 C 2036.609375 733.441406 2037.828125 732.21875 2039.339844 732.21875 L 2602.929688 732.21875 C 2604.441406 732.21875 2605.660156 733.441406 2605.660156 734.949219 L 2605.660156 1297.808594 C 2605.660156 1299.308594 2604.441406 1300.53125 2602.929688 1300.53125 Z M 1813.410156 1756.800781 L 2152.851562 1756.800781 C 2157.648438 1778.128906 2160.191406 1800.320312 2160.191406 1823.089844 C 2160.191406 1989.320312 2025.230469 2124.28125 1859 2124.28125 C 1803.941406 2124.28125 1752.320312 2109.476562 1707.910156 2083.644531 L 1707.910156 1861.109375 L 1861.160156 1861.109375 C 1862.101562 1861.109375 1862.980469 1860.621094 1863.480469 1859.820312 C 1863.96875 1859.011719 1864.019531 1858.011719 1863.601562 1857.160156 Z M 1376.738281 1554.28125 L 1225.300781 1857.160156 C 1224.878906 1858.011719 1224.929688 1859.011719 1225.421875 1859.820312 C 1225.921875 1860.621094 1226.800781 1861.109375 1227.738281 1861.109375 L 1554.699219 1861.109375 C 1566.601562 1957.121094 1622.941406 2039.425781 1702.449219 2086.761719 L 1702.449219 2111.6875 L 1144.308594 2111.6875 L 1144.308594 1554.28125 Z M 1560.199219 1861.109375 C 1571.910156 1953.988281 1626 2033.75 1702.449219 2080.394531 L 1702.449219 1861.109375 Z M 2520.699219 2063.371094 C 2520.699219 2064.878906 2519.480469 2066.097656 2517.96875 2066.097656 L 2220.199219 2066.097656 C 2218.699219 2066.097656 2217.46875 2064.878906 2217.46875 2063.371094 L 2217.46875 1765.988281 C 2217.46875 1764.480469 2218.699219 1763.261719 2220.199219 1763.261719 L 2517.96875 1763.261719 C 2519.480469 1763.261719 2520.699219 1764.480469 2520.699219 1765.988281 Z M 2515.25 2060.644531 L 2515.25 1768.71875 L 2222.929688 1768.71875 C 2222.929688 1768.71875 2222.929688 2060.644531 2222.929688 2060.644531 Z M 1707.910156 1855.660156 L 1707.910156 1756.800781 L 1807.308594 1756.800781 L 1856.738281 1855.660156 Z M 1605.238281 1660.878906 L 1628.960938 1660.878906 L 1628.960938 1754.070312 C 1628.960938 1755.570312 1630.179688 1756.800781 1631.691406 1756.800781 L 1702.449219 1756.800781 L 1702.449219 1855.660156 L 1559.558594 1855.660156 C 1558.410156 1844.96875 1557.808594 1834.101562 1557.808594 1823.089844 C 1557.808594 1763.378906 1575.230469 1707.710938 1605.238281 1660.878906 Z M 1382.839844 1554.28125 L 1546.5 1554.28125 L 1546.5 1658.148438 C 1546.5 1659.660156 1547.71875 1660.878906 1549.230469 1660.878906 L 1598.789062 1660.878906 C 1569.371094 1707.960938 1552.359375 1763.558594 1552.359375 1823.089844 C 1552.359375 1834.089844 1552.941406 1844.960938 1554.070312 1855.660156 L 1232.160156 1855.660156 Z M 1634.421875 1660.878906 L 1702.449219 1660.878906 L 1702.449219 1751.339844 L 1634.421875 1751.339844 Z M 1759.359375 1660.878906 L 1804.589844 1751.339844 L 1707.910156 1751.339844 L 1707.910156 1660.878906 Z M 2151.570312 1751.339844 C 2143.601562 1718.789062 2130.339844 1688.320312 2112.761719 1660.878906 L 1765.460938 1660.878906 L 1810.691406 1751.339844 Z M 2115.550781 1655.171875 L 2115.550781 1461.46875 L 2192.558594 1615.480469 L 2192.558594 1751.339844 L 2157.179688 1751.339844 C 2148.839844 1716.621094 2134.589844 1684.191406 2115.550781 1655.171875 Z M 2451.308594 1320.210938 C 2451.769531 1319.289062 2452.71875 1318.699219 2453.75 1318.699219 C 2454.78125 1318.699219 2455.730469 1319.289062 2456.191406 1320.210938 L 2658.289062 1724.421875 C 2658.710938 1725.261719 2658.671875 1726.269531 2658.171875 1727.070312 C 2657.679688 1727.878906 2656.800781 1728.371094 2655.851562 1728.371094 L 2251.640625 1728.371094 C 2250.699219 1728.371094 2249.820312 1727.878906 2249.328125 1727.070312 C 2248.828125 1726.269531 2248.78125 1725.261719 2249.210938 1724.421875 Z M 2453.75 1327.53125 L 2256.058594 1722.910156 L 2651.441406 1722.910156 Z M 1551.949219 1554.28125 L 1628.960938 1554.28125 L 1628.960938 1620.421875 C 1619.261719 1631.421875 1610.339844 1643.121094 1602.28125 1655.429688 L 1551.949219 1655.429688 Z M 1628.960938 1628.761719 C 1621.78125 1637.261719 1615.050781 1646.160156 1608.828125 1655.429688 L 1628.960938 1655.429688 Z M 1702.449219 1565.800781 C 1677.058594 1581.289062 1654.140625 1600.429688 1634.421875 1622.488281 L 1634.421875 1655.429688 L 1702.449219 1655.429688 Z M 1709.679688 1561.519531 L 1756.628906 1655.429688 L 1707.910156 1655.429688 L 1707.910156 1562.550781 L 1709.128906 1561.839844 Z M 1714.441406 1558.851562 L 1762.730469 1655.429688 L 2109.171875 1655.429688 C 2055.101562 1574.929688 1963.191406 1521.910156 1859 1521.910156 C 1806.621094 1521.910156 1757.351562 1535.308594 1714.441406 1558.851562 Z M 1872.351562 1193.941406 L 1981.789062 1193.941406 L 2110.101562 1450.558594 L 2110.101562 1647.140625 C 2054.609375 1568.140625 1962.789062 1516.449219 1859 1516.449219 C 1805.761719 1516.449219 1755.671875 1530.050781 1712 1553.96875 L 1682.03125 1494.03125 C 1794.089844 1445.011719 1872.488281 1333.121094 1872.488281 1203.058594 C 1872.488281 1200.011719 1872.441406 1196.980469 1872.351562 1193.941406 Z M 2198.019531 1614.199219 L 2198.019531 1300.53125 L 2358.949219 1300.53125 L 2200.058594 1618.289062 Z M 1702.449219 1554.28125 L 1702.449219 1559.429688 C 1677.21875 1574.449219 1654.308594 1593 1634.421875 1614.398438 L 1634.421875 1554.28125 Z M 2192.558594 1300.53125 L 2192.558594 1603.289062 L 2115.550781 1449.269531 L 2115.550781 1300.53125 Z M 1677.011719 1496.179688 L 1703.328125 1548.828125 L 1634.421875 1548.828125 L 1634.421875 1510.460938 C 1649.050781 1506.691406 1663.269531 1501.898438 1677.011719 1496.179688 Z M 1628.960938 1511.820312 L 1628.960938 1548.828125 L 1551.949219 1548.828125 L 1551.949219 1520.460938 C 1553 1520.46875 1554.039062 1520.480469 1555.070312 1520.480469 C 1580.511719 1520.480469 1605.25 1517.480469 1628.960938 1511.820312 Z M 1415.820312 1488.339844 C 1455.441406 1507.738281 1499.710938 1519.121094 1546.5 1520.359375 L 1546.5 1548.828125 L 1385.570312 1548.828125 Z M 1246.980469 1126.449219 C 1240.890625 1150.980469 1237.660156 1176.640625 1237.660156 1203.058594 C 1237.660156 1293.109375 1275.230469 1374.449219 1335.558594 1432.25 L 1290.769531 1521.828125 L 1093.078125 1126.449219 Z M 1551.949219 1515.011719 C 1553.011719 1515.019531 1554.039062 1515.019531 1555.070312 1515.019531 C 1580.519531 1515.019531 1605.261719 1511.96875 1628.960938 1506.199219 L 1628.960938 1400.089844 L 1551.949219 1246.070312 Z M 1546.5 1235.160156 L 1544.449219 1231.070312 L 1418.261719 1483.460938 C 1457.148438 1502.488281 1500.589844 1513.671875 1546.5 1514.910156 Z M 1634.421875 1504.820312 C 1648.191406 1501.210938 1661.601562 1496.671875 1674.558594 1491.289062 L 1634.421875 1411 Z M 1866.898438 1193.941406 L 1634.421875 1193.941406 L 1634.421875 1398.808594 L 1679.589844 1489.140625 C 1789.859375 1441.039062 1867.03125 1330.988281 1867.03125 1203.058594 C 1867.03125 1200.019531 1866.988281 1196.980469 1866.898438 1193.941406 Z M 1254.039062 1121 C 1290.089844 988.589844 1411.289062 891.101562 1555.070312 891.101562 C 1688.351562 891.101562 1802.21875 974.871094 1846.859375 1092.570312 L 1549.230469 1092.570312 C 1547.71875 1092.570312 1546.5 1093.789062 1546.5 1095.289062 L 1546.5 1223.171875 C 1545.988281 1222.589844 1545.25 1222.238281 1544.449219 1222.238281 C 1543.421875 1222.238281 1542.46875 1222.820312 1542.011719 1223.75 L 1413.378906 1481.019531 C 1387.339844 1467.710938 1363.421875 1450.851562 1342.25 1431.070312 L 1495.308594 1124.941406 C 1495.730469 1124.101562 1495.691406 1123.089844 1495.191406 1122.289062 C 1494.691406 1121.488281 1493.820312 1121 1492.871094 1121 Z M 2110.101562 1300.53125 L 2110.101562 1438.359375 L 2041.191406 1300.53125 Z M 1488.460938 1126.449219 L 1252.601562 1126.449219 C 1246.398438 1150.96875 1243.109375 1176.628906 1243.109375 1203.058594 C 1243.109375 1290.960938 1279.539062 1370.410156 1338.109375 1427.140625 Z M 1848.871094 1098.019531 C 1859.070312 1126.5 1865.238281 1156.878906 1866.691406 1188.480469 L 1631.691406 1188.480469 C 1630.179688 1188.480469 1628.960938 1189.699219 1628.960938 1191.210938 L 1628.960938 1387.898438 L 1551.949219 1233.878906 L 1551.949219 1098.019531 Z M 2042.058594 1193.941406 L 2110.101562 1193.941406 L 2110.101562 1295.078125 L 2042.058594 1295.078125 Z M 2192.558594 1193.941406 L 2192.558594 1295.078125 L 2115.550781 1295.078125 L 2115.550781 1193.941406 Z M 2512.359375 993.710938 L 2361.671875 1295.078125 L 2198.019531 1295.078125 L 2198.019531 1191.210938 C 2198.019531 1189.699219 2196.789062 1188.480469 2195.289062 1188.480469 L 2115.550781 1188.480469 L 2115.550781 1095.289062 C 2115.550781 1093.789062 2114.328125 1092.570312 2112.820312 1092.570312 L 2042.058594 1092.570312 L 2042.058594 993.710938 Z M 2042.058594 988.25 L 2042.058594 737.679688 L 2600.210938 737.679688 L 2600.210938 1295.078125 L 2367.769531 1295.078125 L 2519.210938 992.199219 C 2519.628906 991.351562 2519.589844 990.351562 2519.089844 989.550781 C 2518.589844 988.738281 2517.71875 988.25 2516.769531 988.25 Z M 2036.609375 1193.941406 L 2036.609375 1291.378906 L 1987.890625 1193.941406 Z M 2110.101562 1188.480469 L 2042.058594 1188.480469 L 2042.058594 1098.019531 L 2110.101562 1098.019531 Z M 2036.609375 1188.480469 L 1985.160156 1188.480469 L 1939.929688 1098.019531 L 2036.609375 1098.019531 Z M 1854.660156 1098.019531 L 1933.828125 1098.019531 L 1979.058594 1188.480469 L 1872.148438 1188.480469 C 1870.71875 1156.921875 1864.679688 1126.550781 1854.660156 1098.019531 Z M 2036.609375 993.710938 L 2036.609375 1092.570312 L 1937.199219 1092.570312 L 1887.769531 993.710938 L 2036.609375 993.710938 "/>
</g>
</g>
<path fill-rule="evenodd" fill="rgb(54.492188%, 53.318787%, 94.53125%)" fill-opacity="1" d="M 538.421875 1754.429688 C 415.695312 1754.429688 316.058594 1854.070312 316.058594 1976.789062 C 316.058594 2099.519531 415.695312 2199.15625 538.421875 2199.15625 C 661.148438 2199.15625 760.785156 2099.519531 760.785156 1976.789062 C 760.785156 1854.070312 661.148438 1754.429688 538.421875 1754.429688 "/>
<g clip-path="url(#clip-2)">
<g clip-path="url(#clip-3)">
<path fill-rule="evenodd" fill="rgb(100%, 100%, 100%)" fill-opacity="1" d="M 1119.488281 1591.519531 L 956.953125 1916.589844 C 956.492188 1917.519531 955.546875 1918.101562 954.515625 1918.101562 C 953.71875 1918.101562 952.972656 1917.761719 952.464844 1917.171875 L 952.464844 2045.050781 C 952.464844 2046.558594 951.242188 2047.777344 949.738281 2047.777344 L 912.886719 2047.777344 C 917.601562 2069.128906 920.089844 2091.3125 920.089844 2114.074219 C 920.089844 2283.316406 782.6875 2420.71875 613.449219 2420.71875 C 558.53125 2420.71875 506.964844 2406.246094 462.355469 2380.914062 L 462.355469 2405.394531 C 462.355469 2406.902344 461.132812 2408.121094 459.628906 2408.121094 L -103.96875 2408.121094 C -105.476562 2408.121094 -106.695312 2406.902344 -106.695312 2405.394531 L -106.695312 1842.539062 C -106.695312 1841.03125 -105.476562 1839.808594 -103.96875 1839.808594 L 133.921875 1839.808594 L 165.386719 1776.878906 C 139.359375 1763.578125 115.410156 1746.789062 94.152344 1727.128906 L 47.65625 1820.128906 C 47.191406 1821.058594 46.25 1821.640625 45.214844 1821.640625 C 44.183594 1821.640625 43.238281 1821.058594 42.777344 1820.128906 L -159.328125 1415.921875 C -159.75 1415.078125 -159.703125 1414.078125 -159.207031 1413.269531 C -158.710938 1412.46875 -157.832031 1411.980469 -156.886719 1411.980469 L 2.835938 1411.980469 C 39.050781 1276.511719 162.714844 1176.628906 309.519531 1176.628906 C 445.847656 1176.628906 562.21875 1262.761719 607.140625 1383.550781 L 685.550781 1383.550781 L 635.367188 1283.179688 C 634.945312 1282.339844 634.988281 1281.328125 635.488281 1280.53125 C 635.984375 1279.71875 636.859375 1279.230469 637.808594 1279.230469 L 791.058594 1279.230469 L 791.058594 1025.929688 C 791.058594 1024.421875 792.277344 1023.199219 793.785156 1023.199219 L 1357.378906 1023.199219 C 1358.890625 1023.199219 1360.109375 1024.421875 1360.109375 1025.929688 L 1360.109375 1588.789062 C 1360.109375 1590.300781 1358.890625 1591.519531 1357.378906 1591.519531 Z M 567.863281 2047.777344 L 907.300781 2047.777344 C 912.101562 2069.117188 914.632812 2091.304688 914.632812 2114.074219 C 914.632812 2280.304688 779.675781 2415.261719 613.449219 2415.261719 C 558.394531 2415.261719 506.769531 2400.457031 462.355469 2374.625 L 462.355469 2152.09375 L 615.605469 2152.09375 C 616.550781 2152.09375 617.429688 2151.601562 617.925781 2150.796875 C 618.421875 2149.992188 618.46875 2148.988281 618.046875 2148.144531 Z M 131.195312 1845.261719 L -20.246094 2148.144531 C -20.667969 2148.988281 -20.625 2149.992188 -20.128906 2150.796875 C -19.632812 2151.601562 -18.753906 2152.09375 -17.808594 2152.09375 L 309.148438 2152.09375 C 321.046875 2248.101562 377.390625 2330.40625 456.902344 2377.742188 L 456.902344 2402.667969 L -101.242188 2402.667969 L -101.242188 1845.261719 Z M 314.644531 2152.09375 C 326.359375 2244.96875 380.445312 2324.730469 456.902344 2371.375 L 456.902344 2152.09375 Z M 1275.148438 2354.351562 C 1275.148438 2355.859375 1273.929688 2357.082031 1272.421875 2357.082031 L 974.648438 2357.082031 C 973.144531 2357.082031 971.921875 2355.859375 971.921875 2354.351562 L 971.921875 2056.972656 C 971.921875 2055.46875 973.144531 2054.246094 974.648438 2054.246094 L 1272.421875 2054.246094 C 1273.929688 2054.246094 1275.148438 2055.46875 1275.148438 2056.972656 Z M 1269.691406 2351.625 L 1269.691406 2059.699219 L 977.378906 2059.699219 L 977.378906 2351.625 Z M 462.355469 2146.636719 L 462.355469 2047.777344 L 561.765625 2047.777344 L 611.191406 2146.636719 Z M 359.691406 1951.859375 L 383.410156 1951.859375 L 383.410156 2045.050781 C 383.410156 2046.558594 384.632812 2047.777344 386.140625 2047.777344 L 456.902344 2047.777344 L 456.902344 2146.636719 L 314.007812 2146.636719 C 312.855469 2135.949219 312.261719 2125.082031 312.261719 2114.074219 C 312.261719 2054.367188 329.675781 1998.691406 359.691406 1951.859375 Z M 137.292969 1845.261719 L 300.949219 1845.261719 L 300.949219 1949.128906 C 300.949219 1950.640625 302.167969 1951.859375 303.675781 1951.859375 L 353.238281 1951.859375 C 323.8125 1998.941406 306.808594 2054.539062 306.808594 2114.074219 C 306.808594 2125.078125 307.390625 2135.941406 308.519531 2146.636719 L -13.394531 2146.636719 Z M 388.867188 1951.859375 L 456.902344 1951.859375 L 456.902344 2042.324219 L 388.867188 2042.324219 Z M 513.804688 1951.859375 L 559.035156 2042.324219 L 462.355469 2042.324219 L 462.355469 1951.859375 Z M 906.019531 2042.324219 C 898.050781 2009.773438 884.789062 1979.300781 867.203125 1951.859375 L 519.902344 1951.859375 L 565.136719 2042.324219 Z M 870 1946.148438 L 870 1752.449219 L 947.011719 1906.46875 L 947.011719 2042.324219 L 911.632812 2042.324219 C 903.292969 2007.601562 889.042969 1975.171875 870 1946.148438 Z M 1205.761719 1611.191406 C 1206.21875 1610.269531 1207.160156 1609.691406 1208.199219 1609.691406 C 1209.230469 1609.691406 1210.171875 1610.269531 1210.640625 1611.191406 L 1412.738281 2015.402344 C 1413.160156 2016.246094 1413.121094 2017.25 1412.621094 2018.054688 C 1412.121094 2018.859375 1411.25 2019.347656 1410.300781 2019.347656 L 1006.089844 2019.347656 C 1005.148438 2019.347656 1004.269531 2018.859375 1003.769531 2018.054688 C 1003.28125 2017.25 1003.230469 2016.246094 1003.648438 2015.402344 Z M 1208.199219 1618.511719 L 1010.511719 2013.894531 L 1405.890625 2013.894531 Z M 306.402344 1845.261719 L 383.410156 1845.261719 L 383.410156 1911.398438 C 373.710938 1922.398438 364.785156 1934.101562 356.730469 1946.410156 L 306.402344 1946.410156 Z M 383.410156 1919.738281 C 376.222656 1928.238281 369.5 1937.140625 363.273438 1946.410156 L 383.410156 1946.410156 Z M 456.902344 1856.78125 C 431.507812 1872.269531 408.585938 1891.410156 388.867188 1913.46875 L 388.867188 1946.410156 L 456.902344 1946.410156 Z M 464.128906 1852.511719 L 511.078125 1946.410156 L 462.355469 1946.410156 L 462.355469 1853.53125 L 463.582031 1852.820312 Z M 468.890625 1849.839844 L 517.175781 1946.410156 L 863.621094 1946.410156 C 809.546875 1865.910156 717.640625 1812.890625 613.449219 1812.890625 C 561.070312 1812.890625 511.796875 1826.289062 468.890625 1849.839844 Z M 626.804688 1484.921875 L 736.234375 1484.921875 L 864.546875 1741.539062 L 864.546875 1938.121094 C 809.0625 1859.121094 717.242188 1807.441406 613.449219 1807.441406 C 560.207031 1807.441406 510.113281 1821.039062 466.449219 1844.949219 L 436.480469 1785.011719 C 548.542969 1736 626.933594 1624.101562 626.933594 1494.039062 C 626.933594 1491 626.890625 1487.960938 626.804688 1484.921875 Z M 952.464844 1905.179688 L 952.464844 1591.519531 L 1113.390625 1591.519531 L 954.515625 1909.28125 Z M 456.902344 1845.261719 L 456.902344 1850.410156 C 431.664062 1865.429688 408.761719 1883.980469 388.867188 1905.378906 L 388.867188 1845.261719 Z M 947.011719 1591.519531 L 947.011719 1894.269531 L 870 1740.25 L 870 1591.519531 Z M 431.453125 1787.160156 L 457.777344 1839.808594 L 388.867188 1839.808594 L 388.867188 1801.441406 C 403.496094 1797.671875 417.71875 1792.878906 431.453125 1787.160156 Z M 383.410156 1802.800781 L 383.410156 1839.808594 L 306.402344 1839.808594 L 306.402344 1811.441406 C 307.453125 1811.460938 308.484375 1811.460938 309.519531 1811.460938 C 334.957031 1811.460938 359.699219 1808.460938 383.410156 1802.800781 Z M 170.265625 1779.320312 C 209.894531 1798.71875 254.164062 1810.101562 300.949219 1811.351562 L 300.949219 1839.808594 L 140.019531 1839.808594 Z M 1.429688 1417.429688 C -4.664062 1441.960938 -7.894531 1467.628906 -7.894531 1494.039062 C -7.894531 1584.089844 29.679688 1665.429688 90.007812 1723.230469 L 45.214844 1812.808594 L -152.476562 1417.429688 Z M 306.402344 1805.988281 C 307.453125 1806 308.484375 1806.011719 309.519531 1806.011719 C 334.964844 1806.011719 359.707031 1802.949219 383.410156 1797.191406 L 383.410156 1691.070312 L 306.402344 1537.058594 Z M 300.949219 1526.148438 L 298.898438 1522.050781 L 172.703125 1774.441406 C 211.601562 1793.46875 255.042969 1804.648438 300.949219 1805.890625 Z M 388.867188 1795.808594 C 402.640625 1792.191406 416.046875 1787.648438 429.007812 1782.269531 L 388.867188 1701.980469 Z M 621.347656 1484.921875 L 388.867188 1484.921875 L 388.867188 1689.789062 L 434.035156 1780.121094 C 544.3125 1732.019531 621.480469 1621.96875 621.480469 1494.039062 C 621.480469 1491 621.433594 1487.960938 621.347656 1484.921875 Z M 8.484375 1411.980469 C 44.539062 1279.570312 165.734375 1182.078125 309.519531 1182.078125 C 442.800781 1182.078125 556.671875 1265.851562 601.3125 1383.550781 L 303.675781 1383.550781 C 302.167969 1383.550781 300.949219 1384.769531 300.949219 1386.28125 L 300.949219 1514.148438 C 300.4375 1513.570312 299.695312 1513.21875 298.898438 1513.21875 C 297.867188 1513.21875 296.921875 1513.808594 296.460938 1514.730469 L 167.828125 1772 C 141.792969 1758.691406 117.867188 1741.828125 96.695312 1722.050781 L 249.757812 1415.921875 C 250.183594 1415.078125 250.136719 1414.078125 249.640625 1413.269531 C 249.144531 1412.46875 248.265625 1411.980469 247.320312 1411.980469 Z M 864.546875 1591.519531 L 864.546875 1729.339844 L 795.632812 1591.519531 Z M 242.90625 1417.429688 L 7.054688 1417.429688 C 0.851562 1441.949219 -2.441406 1467.621094 -2.441406 1494.039062 C -2.441406 1581.941406 33.988281 1661.390625 92.5625 1718.121094 Z M 603.324219 1389 C 613.519531 1417.480469 619.6875 1447.871094 621.144531 1479.460938 L 386.140625 1479.460938 C 384.632812 1479.460938 383.410156 1480.691406 383.410156 1482.191406 L 383.410156 1678.878906 L 306.402344 1524.859375 L 306.402344 1389 Z M 796.511719 1484.921875 L 864.546875 1484.921875 L 864.546875 1586.058594 L 796.511719 1586.058594 Z M 947.011719 1484.921875 L 947.011719 1586.058594 L 870 1586.058594 L 870 1484.921875 Z M 1266.808594 1284.691406 L 1116.121094 1586.058594 L 952.464844 1586.058594 L 952.464844 1482.191406 C 952.464844 1480.691406 951.242188 1479.460938 949.738281 1479.460938 L 870 1479.460938 L 870 1386.28125 C 870 1384.769531 868.78125 1383.550781 867.273438 1383.550781 L 796.511719 1383.550781 L 796.511719 1284.691406 Z M 796.511719 1279.230469 L 796.511719 1028.660156 L 1354.660156 1028.660156 L 1354.660156 1586.058594 L 1122.21875 1586.058594 L 1273.660156 1283.179688 C 1274.078125 1282.339844 1274.039062 1281.328125 1273.539062 1280.53125 C 1273.039062 1279.71875 1272.171875 1279.230469 1271.21875 1279.230469 Z M 791.058594 1484.921875 L 791.058594 1582.359375 L 742.335938 1484.921875 Z M 864.546875 1479.460938 L 796.511719 1479.460938 L 796.511719 1389 L 864.546875 1389 Z M 791.058594 1479.460938 L 739.605469 1479.460938 L 694.375 1389 L 791.058594 1389 Z M 609.109375 1389 L 688.277344 1389 L 733.507812 1479.460938 L 626.601562 1479.460938 C 625.171875 1447.898438 619.125 1417.53125 609.109375 1389 Z M 791.058594 1284.691406 L 791.058594 1383.550781 L 691.648438 1383.550781 L 642.21875 1284.691406 L 791.058594 1284.691406 "/>
</g>
</g>
<path fill-rule="evenodd" fill="rgb(54.492188%, 53.318787%, 94.53125%)" fill-opacity="1" d="M 760.785156 2197.332031 C 802.0625 2197.332031 835.574219 2230.84375 835.574219 2272.121094 C 835.574219 2313.398438 802.0625 2346.910156 760.785156 2346.910156 C 719.507812 2346.910156 685.996094 2313.398438 685.996094 2272.121094 C 685.996094 2230.84375 719.507812 2197.332031 760.785156 2197.332031 "/>
<path fill-rule="evenodd" fill="rgb(54.492188%, 53.318787%, 94.53125%)" fill-opacity="1" d="M 1765.128906 897.300781 C 1691.339844 1029.109375 1612.039062 1106.078125 1531.988281 1148.191406 C 1361.960938 1237.640625 1188.78125 1169.800781 1059.109375 1137.949219 C 992.011719 1121.460938 936.296875 1114.839844 898.097656 1142.410156 C 866.824219 1164.96875 846.828125 1210.621094 842.390625 1293.589844 C 829.59375 1533.648438 922.007812 1756.328125 1081.140625 1920.769531 C 1235.289062 2080.054688 1452.039062 2184.671875 1696.300781 2197.628906 C 1936.570312 2210.1875 2176.78125 2144.808594 2364.71875 2020.332031 C 2565.148438 1887.578125 2706.109375 1687.71875 2724.910156 1444.171875 C 2746.121094 1167.570312 2599.320312 944.488281 2410.621094 821.519531 C 2181.96875 672.519531 1892.070312 670.589844 1765.851562 897.710938 Z M 1769.058594 899.5 C 1894.738281 675.308594 2181.480469 678.710938 2407.128906 826.851562 C 2593.339844 949.101562 2738.121094 1170 2716.300781 1443.5 C 2697.230469 1684.078125 2557.351562 1881.019531 2359.179688 2011.953125 C 2172.820312 2135.082031 1934.890625 2199.929688 1696.839844 2187.433594 C 1455.140625 2174.929688 1240.589844 2071.648438 1087.828125 1914.289062 C 930.078125 1751.789062 838.191406 1531.621094 850.417969 1294.011719 C 854.496094 1214.460938 872.667969 1170.328125 902.601562 1148.628906 C 939.257812 1122.050781 992.847656 1129.351562 1057.371094 1145.050781 C 1188.378906 1176.921875 1363.421875 1244.398438 1534.890625 1153.671875 C 1615.609375 1110.960938 1695.609375 1033.171875 1769.78125 899.898438 L 1769.058594 899.5 "/>
<path fill-rule="evenodd" fill="rgb(97.65625%, 72.851562%, 63.867188%)" fill-opacity="1" d="M 1981.078125 1107.328125 C 2042.878906 1160.75 1943.78125 1335.238281 1765.550781 1408.101562 C 1634.898438 1461.511719 1311.808594 1428.230469 1206.480469 1312.890625 C 1101.148438 1197.550781 1131.589844 867.859375 1133.589844 716.058594 C 1135.679688 557.269531 1076.589844 480.578125 1192.820312 539.171875 L 1229 565.859375 C 1229 565.859375 1269.679688 517.269531 1296.601562 539.730469 C 1334.238281 571.109375 1230.328125 675.128906 1230.328125 675.128906 L 1369.898438 1124.359375 C 1369.898438 1124.359375 1874.988281 1015.640625 1981.078125 1107.328125 "/>
<g clip-path="url(#clip-4)">
<g clip-path="url(#clip-5)">
<path fill-rule="evenodd" fill="rgb(85.9375%, 61.914062%, 53.318787%)" fill-opacity="1" d="M 1126.710938 530.429688 C 1119.511719 584.019531 1274.691406 550.421875 1223.371094 620.820312 C 1098.070312 792.710938 1188.679688 1200.96875 1397 1289.550781 C 1453.121094 1313.410156 1513.679688 1315.71875 1573.128906 1309.511719 C 1610.730469 1305.589844 1661.550781 1291.378906 1694.269531 1319.128906 C 1756.761719 1372.140625 1685.609375 1456.359375 1637.75 1484.289062 C 1492.371094 1569.109375 1312.898438 1486.460938 1194.628906 1386.101562 C 945.441406 1174.648438 944.785156 811.179688 1126.710938 530.429688 "/>
</g>
</g>
<g clip-path="url(#clip-6)">
<g clip-path="url(#clip-7)">
<path fill-rule="evenodd" fill="rgb(10.205078%, 11.009216%, 34.910583%)" fill-opacity="1" d="M 1479.128906 1479.390625 C 1474.898438 1422.089844 1507.621094 1364.921875 1537.699219 1320.328125 C 1554.910156 1294.820312 1577.121094 1274.449219 1589.730469 1245.230469 C 1615.339844 1185.859375 1572.039062 1126.019531 1591.101562 1067.691406 C 1604.300781 1027.328125 1647.941406 1008.488281 1682.511719 996.691406 C 1766.929688 967.890625 1877.28125 962.429688 1953.699219 1017.921875 C 2042.808594 1082.640625 2042.941406 1208.851562 1986.511719 1297.519531 C 1916.589844 1407.398438 1598.121094 1465.230469 1479.128906 1479.390625 "/>
</g>
</g>
<g clip-path="url(#clip-8)">
<g clip-path="url(#clip-9)">
<path fill-rule="evenodd" fill="rgb(1.597595%, 0%, 22.410583%)" fill-opacity="1" d="M 1542.308594 1314.269531 C 1567.371094 1325.851562 1573.75 1322.769531 1600.21875 1321.539062 C 1661.921875 1318.691406 1718.410156 1304.191406 1775.941406 1280.53125 C 1806 1268.160156 1835.359375 1252.628906 1865.960938 1241.878906 C 1875.648438 1238.480469 1896.441406 1232.851562 1897.890625 1249.929688 C 1898.910156 1262.039062 1891.75 1274.660156 1885.890625 1284.269531 C 1871.269531 1308.289062 1852.109375 1329.039062 1832.25 1347.988281 C 1755.078125 1421.628906 1660.480469 1476.300781 1555.289062 1475.710938 C 1518.601562 1475.5 1490.21875 1479.03125 1484.980469 1426.210938 C 1482.570312 1401.890625 1522.921875 1336.488281 1542.308594 1314.269531 "/>
</g>
</g>
<path fill-rule="evenodd" fill="rgb(10.205078%, 11.009216%, 34.910583%)" fill-opacity="1" d="M 1772.308594 1100.269531 C 1884.789062 960.160156 2236.378906 1040.679688 2310.480469 1130.480469 C 2384.578125 1220.289062 2216.898438 1639.089844 2216.898438 1639.089844 C 2245.5 2049.542969 2010.449219 2206.484375 1521.511719 2113.214844 C 1521.511719 2113.214844 1640.808594 1264.058594 1772.308594 1100.269531 "/>
<g clip-path="url(#clip-10)">
<g clip-path="url(#clip-11)">
<path fill-rule="evenodd" fill="rgb(0%, 0%, 22.410583%)" fill-opacity="1" d="M 2303.371094 1513.25 C 2277.050781 1511.179688 2323.488281 1293.550781 2298.789062 1301.460938 C 2230.828125 1323.210938 2151.148438 1363.421875 2115.578125 1428.121094 C 2079.800781 1493.210938 2076.539062 1576.71875 2003.359375 1615.550781 C 1912.449219 1663.789062 1805.570312 1604.390625 1710.03125 1614.191406 C 1669.511719 1618.339844 1611.960938 1643.699219 1626.429688 1695.269531 C 1633.339844 1719.929688 1658.648438 1735.019531 1680.789062 1744.089844 C 1732.25 1765.148438 1790.480469 1771.070312 1845.578125 1771.660156 C 2024.089844 1773.589844 2259.601562 1713.539062 2303.371094 1513.25 "/>
</g>
</g>
<path fill-rule="evenodd" fill="rgb(29.80957%, 23.094177%, 74.804688%)" fill-opacity="1" d="M 2555.511719 1813.210938 C 2565.179688 1794.558594 2567.039062 1772.839844 2560.699219 1752.808594 C 2554.351562 1732.789062 2540.308594 1716.109375 2521.660156 1706.441406 C 2354.25 1619.628906 1933.53125 1401.480469 1766.121094 1314.671875 C 1747.46875 1305 1725.75 1303.128906 1705.730469 1309.480469 C 1685.699219 1315.828125 1669.019531 1329.871094 1659.351562 1348.519531 C 1603.910156 1455.441406 1499 1657.761719 1443.550781 1764.691406 C 1433.890625 1783.339844 1432.019531 1805.058594 1438.371094 1825.078125 C 1444.71875 1845.109375 1458.761719 1861.789062 1477.410156 1871.460938 C 1644.820312 1958.269531 2065.53125 2176.421875 2232.941406 2263.230469 C 2251.589844 2272.898438 2273.308594 2274.765625 2293.339844 2268.417969 C 2313.359375 2262.070312 2330.039062 2248.027344 2339.710938 2229.378906 C 2395.160156 2122.453125 2500.058594 1920.128906 2555.511719 1813.210938 "/>
<path fill-rule="evenodd" fill="rgb(100%, 100%, 100%)" fill-opacity="1" d="M 2308.691406 2125.121094 C 2315.269531 2112.433594 2316.539062 2097.652344 2312.21875 2084.027344 C 2307.898438 2070.402344 2298.339844 2059.050781 2285.660156 2052.472656 C 2242.878906 2030.292969 2180.53125 1997.960938 2137.75 1975.78125 C 2125.058594 1969.199219 2110.28125 1967.929688 2096.660156 1972.25 C 2083.03125 1976.570312 2071.679688 1986.128906 2065.101562 1998.808594 C 2065.101562 1998.820312 2065.101562 1998.820312 2065.101562 1998.820312 C 2058.519531 2011.511719 2057.25 2026.296875 2061.570312 2039.921875 C 2065.890625 2053.546875 2075.441406 2064.894531 2088.128906 2071.476562 C 2130.910156 2093.652344 2193.261719 2125.988281 2236.03125 2148.167969 C 2248.71875 2154.746094 2263.511719 2156.015625 2277.128906 2151.695312 C 2290.761719 2147.375 2302.109375 2137.820312 2308.691406 2125.132812 C 2308.691406 2125.128906 2308.691406 2125.125 2308.691406 2125.121094 "/>
<path fill-rule="evenodd" fill="rgb(100%, 100%, 100%)" fill-opacity="1" d="M 2515.828125 1889.730469 C 2522.410156 1877.039062 2523.679688 1862.261719 2519.359375 1848.628906 C 2515.039062 1835.011719 2505.488281 1823.660156 2492.800781 1817.078125 C 2336.910156 1736.238281 1844.699219 1481.011719 1688.808594 1400.179688 C 1676.121094 1393.601562 1661.339844 1392.328125 1647.71875 1396.648438 C 1634.089844 1400.96875 1622.738281 1410.53125 1616.160156 1423.210938 C 1616.160156 1423.21875 1616.160156 1423.21875 1616.160156 1423.21875 C 1609.578125 1435.910156 1608.308594 1450.691406 1612.628906 1464.320312 C 1616.949219 1477.941406 1626.5 1489.289062 1639.191406 1495.871094 C 1795.078125 1576.710938 2287.289062 1831.941406 2443.179688 1912.769531 C 2455.871094 1919.351562 2470.648438 1920.621094 2484.269531 1916.300781 C 2497.898438 1911.980469 2509.25 1902.421875 2515.828125 1889.730469 "/>
<path fill-rule="evenodd" fill="rgb(97.65625%, 72.851562%, 63.867188%)" fill-opacity="1" d="M 1977.03125 934.269531 L 2119.429688 940.800781 C 2097.429688 978.558594 2096.769531 1016.628906 2123.5 1055.089844 C 2012.46875 1250.300781 1951.308594 1261.28125 1948.941406 1055.089844 C 1978.121094 1012.878906 1985.570312 972.789062 1977.03125 934.269531 "/>
<g clip-path="url(#clip-12)">
<g clip-path="url(#clip-13)">
<path fill-rule="evenodd" fill="rgb(85.9375%, 61.914062%, 53.318787%)" fill-opacity="1" d="M 1949.769531 1026.21875 C 1992.289062 1063.929688 2057.121094 1050.710938 2093.238281 1006.289062 C 2111.570312 983.738281 2130.199219 941.890625 2114.46875 910.25 C 2102.019531 885.230469 2076.308594 875.691406 2054.570312 873.339844 C 1999.769531 867.441406 1945.53125 945.601562 1949.769531 1026.21875 "/>
</g>
</g>
<path fill-rule="evenodd" fill="rgb(97.65625%, 72.851562%, 63.867188%)" fill-opacity="1" d="M 2028.171875 743.328125 C 1975.519531 743.328125 1932.769531 801.800781 1932.769531 873.820312 C 1932.769531 945.839844 1948.921875 1004.308594 2001.558594 1004.308594 C 2054.210938 1004.308594 2123.558594 945.839844 2123.558594 873.820312 C 2123.558594 801.800781 2080.808594 743.328125 2028.171875 743.328125 "/>
<g clip-path="url(#clip-14)">
<g clip-path="url(#clip-15)">
<path fill-rule="evenodd" fill="rgb(85.9375%, 61.914062%, 53.318787%)" fill-opacity="1" d="M 1919.378906 803.289062 C 1921.339844 812.199219 1923.890625 821.039062 1927.421875 829.449219 C 1930.371094 836.449219 1933.890625 844.058594 1938.570312 850.070312 C 1945.089844 858.429688 1957.730469 862.03125 1967.640625 863.601562 C 1991.148438 867.328125 2016.011719 860.109375 2039.121094 866.648438 C 2046.679688 868.789062 2054.488281 871.859375 2059.75 877.898438 C 2066.808594 886 2070.050781 916.121094 2086.800781 905.589844 C 2088.898438 904.261719 2090.621094 902.480469 2092.058594 900.46875 C 2093.921875 897.851562 2095.328125 894.871094 2096.449219 891.871094 C 2105.230469 868.441406 2097.039062 840.800781 2083.960938 820.71875 C 2054.671875 775.808594 1966.199219 766.648438 1919.378906 803.289062 "/>
</g>
</g>
<path fill-rule="evenodd" fill="rgb(1.997375%, 0.39978%, 24.291992%)" fill-opacity="1" d="M 1899.308594 849.601562 C 1898.800781 847.988281 1901.328125 824.660156 1919.738281 812.460938 C 1928.808594 806.441406 1941.578125 812 1952.210938 813.589844 C 1984.378906 818.390625 2006.589844 836.628906 2035.160156 849.871094 C 2043.648438 853.808594 2058.761719 863.480469 2068.640625 859.351562 C 2069.578125 858.960938 2071.679688 856.039062 2072.550781 856.179688 C 2076.808594 856.890625 2069.429688 872.449219 2068.75 873.828125 C 2063.488281 884.511719 2043.859375 900.378906 2054.261719 913.359375 C 2061.210938 922.03125 2073.609375 922.308594 2081.761719 915.148438 C 2084.308594 912.910156 2090.738281 903.320312 2095.179688 906.859375 C 2100.25 910.890625 2096.011719 922.28125 2093.929688 926.699219 C 2088.589844 938.058594 2085.890625 946.238281 2095.660156 956.398438 C 2115.238281 976.78125 2147.121094 968.609375 2159.300781 945.898438 C 2158.679688 943.699219 2163.671875 947.328125 2165.929688 947.648438 C 2170.699219 948.328125 2175.421875 948.359375 2180.191406 947.539062 C 2193.640625 945.21875 2206.371094 939 2218.140625 932.308594 C 2252.730469 912.648438 2278.039062 875.980469 2281.96875 836.050781 C 2284.25 812.949219 2278.148438 788.691406 2263.289062 770.558594 C 2236.191406 737.511719 2179.609375 723.28125 2145.03125 754.089844 C 2131.828125 687 2061.351562 660.671875 1999.269531 682.820312 C 1972.871094 692.238281 1945.078125 710.621094 1938.460938 739.621094 C 1934.429688 733.050781 1918.460938 742.148438 1914.761719 744.839844 C 1898.980469 756.339844 1897.609375 830.320312 1899.308594 849.601562 "/>
<path fill-rule="evenodd" fill="rgb(97.65625%, 72.851562%, 63.867188%)" fill-opacity="1" d="M 2172.109375 1123.921875 C 2220.199219 1053.308594 2421.960938 1145.449219 2492.660156 1338.910156 C 2544.488281 1480.730469 2557.71875 1797.949219 2433.238281 1928.320312 C 2284.550781 2084.050781 2121.050781 1994.410156 1999.53125 2085.417969 C 1929.699219 2137.722656 1679.140625 2073.976562 1705.820312 1993.558594 C 1736.308594 2015.382812 1756.210938 2015.800781 1769.378906 2002.613281 C 1769.378906 2002.613281 1748.429688 1921.738281 1783.109375 1909.71875 C 1838.738281 1890.441406 1813.609375 2004.5625 1951.21875 1943.820312 C 1994.839844 1924.558594 2204.160156 1762.550781 2204.160156 1762.550781 C 2204.160156 1762.550781 2124.03125 1194.519531 2172.109375 1123.921875 "/>
<g clip-path="url(#clip-16)">
<g clip-path="url(#clip-17)">
<path fill-rule="evenodd" fill="rgb(85.9375%, 61.914062%, 53.318787%)" fill-opacity="1" d="M 2551.71875 1584.308594 C 2519.589844 1731.121094 2464.628906 1785.820312 2422.789062 1818.378906 C 2315.078125 1902.199219 2248.871094 1904.378906 2122.359375 1955.011719 C 2073.96875 1974.390625 2020.21875 1981.289062 1973.191406 2003.289062 C 1895.679688 2039.539062 1888.128906 2088.628906 1764.710938 2035.898438 C 1750.398438 2029.78125 1731.101562 2037.0625 1719.039062 2026.046875 C 1712.089844 2019.695312 1709.351562 2001.507812 1698.128906 2001.761719 C 1647.421875 2002.902344 1586.160156 2174.277344 1605.851562 2219.773438 C 1634.320312 2285.589844 1747.71875 2273.347656 1802.351562 2265.84375 C 1820.558594 2263.339844 1838.679688 2259.894531 1856.671875 2256.144531 C 1877.570312 2251.792969 1898.320312 2246.78125 1918.929688 2241.191406 C 2098.109375 2192.570312 2278.921875 2111.652344 2422.550781 1992.269531 C 2494.351562 1932.601562 2534.789062 1678.890625 2551.71875 1584.308594 "/>
</g>
</g>
<g clip-path="url(#clip-18)">
<g clip-path="url(#clip-19)">
<path fill-rule="evenodd" fill="rgb(10.205078%, 11.009216%, 34.910583%)" fill-opacity="1" d="M 2560.480469 1649.210938 C 2503.140625 1653.03125 2446.359375 1616.941406 2402.140625 1583.871094 C 2376.839844 1564.949219 2356.738281 1540.691406 2327.671875 1526.691406 C 2268.621094 1498.25 2208.261719 1544.25 2150.160156 1522.890625 C 2109.96875 1508.109375 2091.648438 1460.730469 2080.28125 1423.238281 C 2052.488281 1331.679688 2048.371094 1212.421875 2104.78125 1130.601562 C 2170.570312 1035.191406 2296.769531 1036.710938 2384.75 1098.808594 C 2493.78125 1175.761719 2547.761719 1520.5 2560.480469 1649.210938 "/>
</g>
</g>
<path fill-rule="evenodd" fill="rgb(29.80957%, 23.094177%, 74.804688%)" fill-opacity="1" d="M 611.132812 923.660156 C 613.300781 895.601562 618.054688 867.589844 625.664062 839.988281 C 636.714844 799.898438 653.261719 760.621094 676.144531 723.441406 C 740.433594 619 840.355469 549.710938 951.035156 523.371094 C 1059.449219 497.570312 1177.699219 512.238281 1280.011719 575.21875 C 1299.300781 587.089844 1317.328125 600.179688 1334.039062 614.441406 C 1351.128906 629.011719 1366.859375 644.691406 1381.148438 661.398438 C 1384.789062 665.421875 1384.480469 671.640625 1380.460938 675.28125 C 1376.429688 678.910156 1370.210938 678.609375 1366.570312 674.578125 C 1352.140625 659.5 1336.410156 645.460938 1319.449219 632.539062 C 1302.988281 620 1285.339844 608.621094 1266.578125 598.460938 C 1169.660156 545.96875 1060.671875 537.710938 962.664062 566.851562 C 866.890625 595.339844 782.132812 660.339844 730.839844 755.050781 C 713.113281 787.78125 700.871094 822 693.359375 856.648438 C 688.859375 877.390625 686.25 898.300781 685.351562 919.171875 C 723.609375 898.011719 784.78125 848.050781 795.574219 838.570312 C 811.460938 824.621094 739.777344 952.761719 694.1875 983.03125 C 684.09375 989.71875 671.957031 1000.121094 660.597656 1003.171875 C 659.703125 1003.410156 658.785156 1003.589844 657.855469 1003.699219 C 652.945312 1006.359375 647.390625 1007.410156 642.363281 1006.398438 C 630.832031 1004.078125 618.046875 994.5 607.542969 988.46875 C 560.089844 961.21875 480.265625 837.980469 497.023438 850.878906 C 508.300781 859.550781 571.511719 904.699219 611.132812 923.660156 "/>
<path fill-rule="evenodd" fill="rgb(29.80957%, 23.094177%, 74.804688%)" fill-opacity="1" d="M 578.195312 1017.738281 C 602.691406 1023.039062 430.023438 1045.109375 369.03125 1023.011719 C 355.53125 1018.109375 337.070312 1013.871094 326.144531 1005.210938 C 312.6875 994.53125 310.84375 967.488281 332.105469 955.539062 C 360.144531 939.769531 394.511719 954.769531 415.242188 965.480469 C 458.996094 988.078125 560.496094 1013.910156 578.195312 1017.738281 "/>
<path fill-rule="evenodd" fill="rgb(29.80957%, 23.094177%, 74.804688%)" fill-opacity="1" d="M 617.886719 1053.859375 C 630.371094 1042.058594 575.96875 1148.300781 539.839844 1174.238281 C 531.839844 1179.980469 522.289062 1188.789062 513.152344 1191.609375 C 501.898438 1195.089844 485.890625 1185.660156 487.363281 1168.988281 C 489.308594 1147.019531 511.105469 1133.390625 525.195312 1125.808594 C 554.929688 1109.808594 608.863281 1062.390625 617.886719 1053.859375 "/>
<path fill-rule="evenodd" fill="rgb(29.80957%, 23.094177%, 74.804688%)" fill-opacity="1" d="M 728.050781 1037.488281 C 717.054688 1032.929688 799.609375 1037.339844 826.222656 1052.871094 C 832.109375 1056.300781 840.375 1059.859375 844.742188 1064.839844 C 850.117188 1070.96875 848.671875 1083.761719 837.71875 1087.53125 C 823.277344 1092.511719 808.496094 1082.570312 799.726562 1075.800781 C 781.210938 1061.511719 735.988281 1040.789062 728.050781 1037.488281 "/>
<path fill-rule="evenodd" fill="rgb(97.65625%, 72.851562%, 63.867188%)" fill-opacity="1" d="M 1262.328125 551.671875 C 1273.699219 571.710938 1260.710938 573.960938 1261.5 593.03125 C 1263.058594 630.410156 1169.761719 653.25 1143.28125 615.941406 C 1131.941406 599.96875 1133.601562 518.578125 1115.429688 515.621094 C 1115.429688 515.621094 1210.960938 461.109375 1262.328125 551.671875 "/>
<path fill-rule="evenodd" fill="rgb(29.80957%, 23.094177%, 74.804688%)" fill-opacity="1" d="M 1472.988281 509.160156 L 1472.769531 508.75 L 1500.578125 455.878906 L 1528.390625 508.75 L 1528.179688 509.160156 L 1528.390625 509.160156 L 1556.199219 456.28125 L 1584.011719 509.160156 L 1584.230469 509.160156 L 1611.820312 456.691406 L 1639.421875 509.160156 L 1640.058594 509.160156 L 1667.441406 457.101562 L 1694.820312 509.160156 L 1695.890625 509.160156 L 1723.058594 457.511719 L 1750.21875 509.160156 L 1750.871094 509.160156 L 1750.871094 840.699219 L 1750.441406 840.699219 L 1750.871094 841.519531 L 1723.058594 894.390625 L 1695.25 841.519531 L 1695.679688 840.699219 L 1695.03125 840.699219 L 1695.25 841.109375 L 1667.441406 893.988281 L 1639.628906 841.109375 L 1639.839844 840.699219 L 1639.628906 840.699219 L 1611.820312 893.578125 L 1584.011719 840.699219 L 1583.800781 840.699219 L 1556.199219 893.171875 L 1528.609375 840.699219 L 1527.960938 840.699219 L 1500.578125 892.761719 L 1473.199219 840.699219 L 1472.769531 840.699219 L 1472.769531 509.160156 L 1472.988281 509.160156 "/>
<path fill-rule="nonzero" fill="rgb(100%, 100%, 100%)" fill-opacity="1" d="M 1647.828125 639.421875 C 1647.828125 634.359375 1649.46875 630.238281 1652.761719 627.089844 C 1656.050781 623.929688 1660.359375 622.351562 1665.691406 622.351562 C 1671.101562 622.351562 1675.449219 623.910156 1678.738281 627.03125 C 1682.03125 630.148438 1683.671875 634.378906 1683.671875 639.710938 L 1683.671875 643.789062 C 1683.671875 648.898438 1682.03125 653 1678.738281 656.101562 C 1675.449219 659.199219 1671.140625 660.75 1665.808594 660.75 C 1660.441406 660.75 1656.101562 659.191406 1652.789062 656.070312 C 1649.480469 652.949219 1647.828125 648.738281 1647.828125 643.449219 Z M 1658.71875 643.789062 C 1658.71875 646.058594 1659.371094 647.878906 1660.671875 649.261719 C 1661.980469 650.648438 1663.691406 651.339844 1665.808594 651.339844 C 1667.921875 651.339844 1669.609375 650.640625 1670.851562 649.238281 C 1672.101562 647.839844 1672.730469 645.96875 1672.730469 643.621094 L 1672.730469 639.421875 C 1672.730469 637.160156 1672.101562 635.320312 1670.851562 633.921875 C 1669.609375 632.519531 1667.890625 631.820312 1665.691406 631.820312 C 1663.609375 631.820312 1661.929688 632.511719 1660.640625 633.890625 C 1659.359375 635.269531 1658.71875 637.191406 1658.71875 639.648438 Z M 1687.300781 685.878906 C 1687.300781 680.769531 1688.96875 676.660156 1692.289062 673.539062 C 1695.621094 670.421875 1699.929688 668.859375 1705.230469 668.859375 C 1710.601562 668.859375 1714.941406 670.398438 1718.238281 673.488281 C 1721.550781 676.570312 1723.210938 680.808594 1723.210938 686.21875 L 1723.210938 690.300781 C 1723.210938 695.371094 1721.578125 699.460938 1718.328125 702.578125 C 1715.078125 705.699219 1710.75 707.261719 1705.339844 707.261719 C 1699.890625 707.261719 1695.53125 705.691406 1692.238281 702.550781 C 1688.949219 699.421875 1687.300781 695.261719 1687.300781 690.078125 Z M 1698.191406 690.300781 C 1698.191406 692.378906 1698.871094 694.160156 1700.238281 695.628906 C 1701.601562 697.109375 1703.300781 697.851562 1705.339844 697.851562 C 1709.949219 697.851562 1712.261719 695.289062 1712.261719 690.191406 L 1712.261719 685.878906 C 1712.261719 683.609375 1711.621094 681.78125 1710.328125 680.410156 C 1709.050781 679.019531 1707.339844 678.328125 1705.230469 678.328125 C 1703.109375 678.328125 1701.410156 679.019531 1700.121094 680.410156 C 1698.839844 681.78125 1698.191406 683.671875 1698.191406 686.050781 Z M 1669.039062 699.941406 L 1661.039062 695.628906 L 1701.371094 631.089844 L 1709.371094 635.398438 L 1669.039062 699.941406 "/>
<path fill-rule="nonzero" fill="rgb(100%, 100%, 100%)" fill-opacity="1" d="M 1680.898438 751.480469 C 1680.898438 755.660156 1680.160156 759.328125 1678.679688 762.480469 C 1677.210938 765.640625 1675.089844 768.070312 1672.328125 769.78125 C 1669.578125 771.488281 1666.421875 772.351562 1662.859375 772.351562 C 1659.339844 772.351562 1656.191406 771.5 1653.429688 769.808594 C 1650.671875 768.121094 1648.53125 765.699219 1647.011719 762.558594 C 1645.488281 759.410156 1644.71875 755.800781 1644.699219 751.710938 L 1644.699219 749.609375 C 1644.699219 745.421875 1645.460938 741.738281 1646.960938 738.558594 C 1648.46875 735.378906 1650.601562 732.929688 1653.359375 731.230469 C 1656.109375 729.53125 1659.261719 728.679688 1662.800781 728.679688 C 1666.339844 728.679688 1669.488281 729.53125 1672.25 731.230469 C 1675 732.929688 1677.128906 735.378906 1678.640625 738.558594 C 1680.148438 741.738281 1680.898438 745.410156 1680.898438 749.578125 Z M 1672.03125 749.550781 C 1672.03125 745.089844 1671.230469 741.710938 1669.628906 739.390625 C 1668.039062 737.070312 1665.761719 735.921875 1662.800781 735.921875 C 1659.859375 735.921875 1657.601562 737.058594 1656 739.351562 C 1654.398438 741.628906 1653.601562 744.988281 1653.578125 749.398438 L 1653.578125 751.480469 C 1653.578125 755.820312 1654.378906 759.179688 1655.96875 761.578125 C 1657.570312 763.96875 1659.859375 765.171875 1662.859375 765.171875 C 1665.800781 765.171875 1668.058594 764.019531 1669.628906 761.710938 C 1671.210938 759.398438 1672.011719 756.039062 1672.03125 751.621094 L 1672.03125 749.550781 "/>
<path fill-rule="nonzero" fill="rgb(100%, 100%, 100%)" fill-opacity="1" d="M 1689.019531 771.769531 L 1689.019531 746.371094 L 1684.320312 746.371094 L 1684.320312 740.179688 L 1689.019531 740.179688 L 1689.019531 737.488281 C 1689.019531 733.949219 1690.039062 731.199219 1692.070312 729.25 C 1694.101562 727.289062 1696.949219 726.308594 1700.609375 726.308594 C 1701.78125 726.308594 1703.210938 726.511719 1704.898438 726.890625 L 1704.808594 733.441406 C 1704.109375 733.261719 1703.261719 733.171875 1702.238281 733.171875 C 1699.070312 733.171875 1697.488281 734.660156 1697.488281 737.640625 L 1697.488281 740.179688 L 1703.761719 740.179688 L 1703.761719 746.371094 L 1697.488281 746.371094 L 1697.488281 771.769531 L 1689.019531 771.769531 "/>
<path fill-rule="nonzero" fill="rgb(100%, 100%, 100%)" fill-opacity="1" d="M 1710.449219 771.769531 L 1710.449219 746.371094 L 1705.75 746.371094 L 1705.75 740.179688 L 1710.449219 740.179688 L 1710.449219 737.488281 C 1710.449219 733.949219 1711.46875 731.199219 1713.5 729.25 C 1715.53125 727.289062 1718.378906 726.308594 1722.039062 726.308594 C 1723.210938 726.308594 1724.640625 726.511719 1726.328125 726.890625 L 1726.238281 733.441406 C 1725.539062 733.261719 1724.691406 733.171875 1723.671875 733.171875 C 1720.5 733.171875 1718.910156 734.660156 1718.910156 737.640625 L 1718.910156 740.179688 L 1725.191406 740.179688 L 1725.191406 746.371094 L 1718.910156 746.371094 L 1718.910156 771.769531 L 1710.449219 771.769531 "/>
<path fill-rule="nonzero" fill="rgb(100%, 100%, 100%)" fill-opacity="1" d="M 1501.941406 668.710938 L 1507.148438 564.511719 L 1557.738281 564.511719 L 1557.738281 598.449219 L 1521.839844 598.449219 L 1519.609375 642.519531 C 1523.871094 637.359375 1528.390625 634.78125 1533.191406 634.78125 C 1541.78125 634.78125 1548.519531 640.828125 1553.398438 652.941406 C 1558.269531 665.050781 1560.710938 682 1560.710938 703.78125 C 1560.710938 717.011719 1559.480469 728.859375 1557.019531 739.328125 C 1554.558594 749.800781 1551.039062 757.921875 1546.449219 763.691406 C 1541.859375 769.460938 1536.449219 772.351562 1530.210938 772.351562 C 1524.75 772.351562 1519.691406 769.839844 1515.019531 764.820312 C 1510.351562 759.789062 1506.660156 752.730469 1503.949219 743.628906 C 1501.25 734.519531 1499.808594 724.148438 1499.640625 712.511719 L 1517.378906 712.511719 C 1517.75 721.050781 1519.058594 727.691406 1521.308594 732.429688 C 1523.558594 737.171875 1526.511719 739.539062 1530.148438 739.539062 C 1534.199219 739.539062 1537.320312 736.230469 1539.511719 729.609375 C 1541.699219 723 1542.789062 713.628906 1542.789062 701.519531 C 1542.789062 689.878906 1541.53125 680.960938 1539.011719 674.769531 C 1536.488281 668.570312 1532.921875 665.480469 1528.289062 665.480469 C 1524.03125 665.480469 1520.578125 668.011719 1517.929688 673.078125 L 1516.199219 676.738281 L 1501.941406 668.710938 "/>
<path fill-rule="nonzero" fill="rgb(100%, 100%, 100%)" fill-opacity="1" d="M 1632.871094 684.769531 C 1632.871094 713.121094 1630.289062 734.800781 1625.128906 749.820312 C 1619.960938 764.839844 1612.390625 772.351562 1602.429688 772.351562 C 1592.601562 772.351562 1585.078125 764.980469 1579.871094 750.238281 C 1574.660156 735.511719 1571.988281 714.378906 1571.871094 686.878906 L 1571.871094 649.140625 C 1571.871094 620.511719 1574.488281 598.78125 1579.710938 583.949219 C 1584.941406 569.109375 1592.46875 561.699219 1602.308594 561.699219 C 1612.148438 561.699219 1619.671875 569.039062 1624.878906 583.738281 C 1630.089844 598.429688 1632.75 619.519531 1632.871094 647.03125 Z M 1614.960938 643.371094 C 1614.960938 626.378906 1613.941406 614.011719 1611.890625 606.261719 C 1609.839844 598.519531 1606.648438 594.648438 1602.308594 594.648438 C 1598.089844 594.648438 1594.988281 598.328125 1592.980469 605.699219 C 1590.980469 613.070312 1589.910156 624.589844 1589.789062 640.269531 L 1589.789062 690.121094 C 1589.789062 706.828125 1590.789062 719.238281 1592.789062 727.359375 C 1594.800781 735.480469 1598.011719 739.539062 1602.429688 739.539062 C 1606.820312 739.539062 1609.980469 735.648438 1611.921875 727.859375 C 1613.859375 720.058594 1614.878906 708.140625 1614.960938 692.089844 L 1614.960938 643.371094 "/>
<path fill-rule="evenodd" fill="rgb(94.921875%, 36.108398%, 63.867188%)" fill-opacity="1" d="M 573.144531 2465.089844 C 573.003906 2468.949219 575.058594 2472.558594 578.445312 2474.410156 C 581.835938 2476.261719 585.980469 2476.039062 589.148438 2473.835938 L 725.9375 2378.800781 C 728.839844 2376.785156 730.492188 2373.410156 730.304688 2369.882812 C 730.113281 2366.355469 728.109375 2363.175781 725.007812 2361.480469 L 594.269531 2290.0625 C 591.167969 2288.367188 587.410156 2288.402344 584.339844 2290.148438 C 581.265625 2291.894531 579.320312 2295.109375 579.191406 2298.640625 Z M 594.261719 2445.453125 L 598.96875 2315.867188 L 700.757812 2371.46875 L 594.261719 2445.453125 "/>
<path fill-rule="evenodd" fill="rgb(94.921875%, 36.108398%, 63.867188%)" fill-opacity="1" d="M 879.769531 2202.890625 C 891.578125 2243.734375 934.328125 2267.304688 975.171875 2255.492188 C 1016.011719 2243.683594 1039.578125 2200.933594 1027.769531 2160.089844 C 1015.960938 2119.246094 973.214844 2095.679688 932.371094 2107.488281 C 891.527344 2119.300781 867.957031 2162.046875 879.769531 2202.890625 Z M 899.355469 2197.226562 C 890.671875 2167.195312 908.003906 2135.761719 938.035156 2127.078125 C 968.066406 2118.390625 999.5 2135.722656 1008.179688 2165.757812 C 1016.871094 2195.789062 999.535156 2227.222656 969.503906 2235.90625 C 939.472656 2244.589844 908.039062 2227.257812 899.355469 2197.226562 "/>
<path fill-rule="evenodd" fill="rgb(29.80957%, 23.094177%, 74.804688%)" fill-opacity="1" d="M 345.542969 2530.152344 C 342.09375 2521.488281 346.148438 2511.375 348.925781 2502.980469 C 353.054688 2490.484375 358.121094 2483.34375 364.429688 2479.714844 C 374.621094 2473.851562 386.785156 2476.539062 398.570312 2477.253906 C 417.429688 2478.398438 435.414062 2476.664062 448.8125 2455.953125 C 460.296875 2438.191406 462.261719 2418.273438 464.085938 2399.011719 C 466.257812 2376.105469 468.035156 2354.054688 498.113281 2341.863281 C 503.328125 2339.75 505.847656 2333.800781 503.734375 2328.585938 C 501.621094 2323.371094 495.671875 2320.851562 490.457031 2322.964844 C 456.886719 2336.570312 448.691406 2358.75 445.277344 2383.566406 C 442.515625 2403.628906 444.011719 2425.828125 431.691406 2444.878906 C 425.742188 2454.074219 418.105469 2456.605469 409.976562 2457.050781 C 402.914062 2457.441406 395.539062 2456.527344 388.265625 2456.105469 C 376.800781 2455.441406 365.597656 2456.019531 355.585938 2461.308594 C 345.472656 2466.652344 336.117188 2476.753906 329.566406 2496.578125 C 325.386719 2509.21875 321.402344 2524.648438 326.597656 2537.695312 C 328.679688 2542.925781 334.613281 2545.480469 339.84375 2543.398438 C 345.070312 2541.316406 347.625 2535.382812 345.542969 2530.152344 "/>
<path fill-rule="evenodd" fill="rgb(29.80957%, 23.094177%, 74.804688%)" fill-opacity="1" d="M 896.777344 2361.609375 C 895.472656 2362.550781 893.621094 2362.753906 891.566406 2362.835938 C 888.191406 2362.972656 884.375 2362.40625 880.445312 2361.355469 C 868.273438 2358.09375 854.734375 2350.347656 850.042969 2340.164062 C 847.367188 2334.355469 848.101562 2327.601562 847.53125 2321.292969 C 846.925781 2314.558594 845.414062 2308.183594 841.609375 2302.617188 C 836.878906 2295.695312 830.949219 2292.871094 824.71875 2290.726562 C 820.835938 2289.390625 816.4375 2288.941406 814.171875 2282.71875 C 812.246094 2277.429688 806.394531 2274.699219 801.105469 2276.621094 C 795.816406 2278.546875 793.085938 2284.398438 795.007812 2289.6875 C 798.765625 2300.015625 804.546875 2304.421875 810.761719 2307.273438 C 813.5 2308.527344 816.371094 2309.371094 819.191406 2310.402344 C 821.1875 2311.128906 823.25 2311.894531 824.773438 2314.121094 C 827.949219 2318.769531 827.332031 2324.644531 827.679688 2330.371094 C 828.0625 2336.703125 828.886719 2342.972656 831.523438 2348.695312 C 838.402344 2363.628906 857.320312 2376.269531 875.171875 2381.050781 C 888.660156 2384.664062 901.339844 2383.460938 908.707031 2378.148438 C 913.269531 2374.855469 914.304688 2368.480469 911.011719 2363.914062 C 907.71875 2359.351562 901.34375 2358.316406 896.777344 2361.609375 "/>
<path fill-rule="evenodd" fill="rgb(94.921875%, 36.108398%, 63.867188%)" fill-opacity="1" d="M 317.933594 2267.78125 C 325.203125 2292.921875 351.515625 2307.429688 376.652344 2300.160156 C 401.792969 2292.890625 416.300781 2266.578125 409.03125 2241.441406 C 401.761719 2216.300781 375.449219 2201.792969 350.3125 2209.0625 C 325.171875 2216.332031 310.664062 2242.644531 317.933594 2267.78125 Z M 337.523438 2262.117188 C 333.378906 2247.789062 341.648438 2232.792969 355.976562 2228.652344 C 370.304688 2224.507812 385.300781 2232.777344 389.441406 2247.105469 C 393.585938 2261.433594 385.316406 2276.429688 370.988281 2280.570312 C 356.660156 2284.714844 341.664062 2276.445312 337.523438 2262.117188 "/>
<path fill-rule="evenodd" fill="rgb(29.80957%, 23.094177%, 74.804688%)" fill-opacity="1" d="M 340.957031 1607.75 C 342.421875 1606.359375 345.429688 1603.519531 346.984375 1602.179688 C 361.460938 1589.71875 379.03125 1578.398438 395.671875 1567.191406 C 444.761719 1534.109375 512.984375 1502.539062 570.347656 1481.851562 C 594.328125 1473.199219 618.492188 1467 642.417969 1458.550781 C 654.558594 1454.261719 660.933594 1440.921875 656.644531 1428.789062 C 652.359375 1416.640625 639.019531 1410.269531 626.882812 1414.558594 C 602.855469 1423.039062 578.597656 1429.28125 554.515625 1437.960938 C 493.765625 1459.878906 421.59375 1493.46875 369.601562 1528.5 C 351.4375 1540.738281 332.351562 1553.21875 316.546875 1566.820312 C 311.949219 1570.78125 305.761719 1576.390625 302.183594 1581.390625 C 298.144531 1587.019531 296.285156 1592.789062 295.921875 1597.640625 C 294.964844 1610.480469 304.609375 1621.691406 317.445312 1622.640625 C 327.953125 1623.429688 337.363281 1617.109375 340.957031 1607.75 "/>
<path fill-rule="evenodd" fill="rgb(94.921875%, 36.108398%, 63.867188%)" fill-opacity="1" d="M 815.175781 1475.710938 L 339.53125 1681.699219 L 522.605469 2104.441406 L 998.253906 1898.460938 L 815.175781 1475.710938 "/>
<path fill-rule="nonzero" fill="rgb(100%, 100%, 100%)" fill-opacity="1" d="M 495.082031 1755.53125 C 486.285156 1735.21875 485.738281 1715.878906 493.445312 1697.519531 C 501.152344 1679.148438 515.691406 1665.339844 537.0625 1656.089844 C 558.734375 1646.699219 578.875 1645.398438 597.476562 1652.199219 C 616.078125 1658.988281 630.007812 1673.070312 639.261719 1694.441406 L 646.351562 1710.808594 C 655.210938 1731.28125 655.742188 1750.578125 647.9375 1768.71875 C 640.132812 1786.859375 625.542969 1800.550781 604.171875 1809.808594 C 582.648438 1819.128906 562.550781 1820.410156 543.871094 1813.648438 C 525.195312 1806.890625 511.261719 1792.898438 502.070312 1771.679688 Z M 546.3125 1754.140625 C 550.253906 1763.230469 556.035156 1769.410156 563.660156 1772.679688 C 571.285156 1775.949219 579.339844 1775.738281 587.828125 1772.070312 C 596.316406 1768.390625 601.847656 1762.671875 604.421875 1754.890625 C 606.992188 1747.121094 606.246094 1738.53125 602.175781 1729.128906 L 594.890625 1712.308594 C 590.949219 1703.21875 585.265625 1696.949219 577.835938 1693.511719 C 570.40625 1690.058594 562.296875 1690.25 553.503906 1694.050781 C 545.167969 1697.660156 539.621094 1703.351562 536.863281 1711.109375 C 534.105469 1718.878906 534.859375 1727.691406 539.128906 1737.539062 Z M 733.957031 1873.210938 C 725.097656 1852.75 724.628906 1833.378906 732.550781 1815.101562 C 740.472656 1796.820312 755.046875 1783.078125 776.265625 1773.890625 C 797.785156 1764.570312 817.855469 1763.210938 836.46875 1769.820312 C 855.078125 1776.429688 869.078125 1790.578125 878.464844 1812.25 L 885.554688 1828.621094 C 894.347656 1848.929688 894.9375 1868.160156 887.316406 1886.308594 C 879.699219 1904.460938 865.050781 1918.230469 843.375 1927.609375 C 821.550781 1937.058594 801.320312 1938.359375 782.683594 1931.488281 C 764.050781 1924.621094 750.238281 1910.800781 741.242188 1890.039062 Z M 785.289062 1872.039062 C 788.898438 1880.378906 794.714844 1886.320312 802.730469 1889.871094 C 810.746094 1893.410156 818.847656 1893.421875 827.03125 1889.871094 C 845.523438 1881.859375 850.339844 1867.628906 841.476562 1847.171875 L 833.992188 1829.890625 C 830.054688 1820.789062 824.3125 1814.601562 816.761719 1811.300781 C 809.214844 1808 801.195312 1808.179688 792.707031 1811.859375 C 784.21875 1815.539062 778.597656 1821.261719 775.839844 1829.019531 C 773.082031 1836.78125 773.769531 1845.441406 777.90625 1854.988281 Z M 685.167969 1961.300781 L 645.628906 1957.898438 L 695.230469 1629.171875 L 734.769531 1632.558594 L 685.167969 1961.300781 "/>
<path fill-rule="evenodd" fill="rgb(86.521912%, 27.905273%, 56.639099%)" fill-opacity="1" d="M 815.175781 1475.710938 L 339.53125 1681.699219 L 353.5 1713.949219 L 829.144531 1507.96875 L 815.175781 1475.710938 "/>
<path fill-rule="evenodd" fill="rgb(56.834412%, 0%, 31.809998%)" fill-opacity="1" d="M 1127.378906 1340.511719 L 815.175781 1475.710938 L 998.253906 1898.460938 L 1310.449219 1763.261719 L 1127.378906 1340.511719 "/>
<path fill-rule="evenodd" fill="rgb(49.09668%, 0%, 25.488281%)" fill-opacity="1" d="M 1127.378906 1340.511719 L 815.175781 1475.710938 L 829.144531 1507.96875 L 1141.339844 1372.761719 L 1127.378906 1340.511719 "/>
<path fill-rule="evenodd" fill="rgb(56.834412%, 0%, 31.809998%)" fill-opacity="1" d="M 1115.648438 1234.941406 L 746.203125 1394.941406 L 786.554688 1488.109375 L 1156 1328.109375 L 1115.648438 1234.941406 "/>
<path fill-rule="evenodd" fill="rgb(94.921875%, 36.108398%, 63.867188%)" fill-opacity="1" d="M 800.964844 1371.21875 L 273.046875 1599.839844 L 313.394531 1693.019531 L 841.3125 1464.390625 L 800.964844 1371.21875 "/>
<path fill-rule="evenodd" fill="rgb(29.80957%, 23.094177%, 74.804688%)" fill-opacity="1" d="M 619.359375 1402.050781 C 610.546875 1403.980469 601.515625 1405.820312 592.863281 1408.371094 C 571.839844 1414.578125 552.972656 1424.640625 540.113281 1443.390625 C 515.828125 1478.800781 519.730469 1534.96875 526.058594 1574.480469 C 535.132812 1631.140625 603.652344 1790.519531 668.191406 1902.738281 C 699.566406 1957.300781 730.5625 2000.742188 753.058594 2018.1875 C 771.972656 2032.855469 789.125 2033.128906 801.320312 2026.277344 C 812.546875 2019.972656 816.539062 2005.742188 810.234375 1994.519531 C 805.046875 1985.28125 794.492188 1980.941406 784.660156 1983.210938 C 782.613281 1981.820312 779.011719 1979.238281 776.410156 1976.769531 C 765.261719 1966.160156 752.480469 1949.308594 738.707031 1928.519531 C 670.628906 1825.769531 582.214844 1630.089844 572.125 1567.101562 C 569.578125 1551.210938 566.984375 1531.929688 567.554688 1513.050781 C 568.027344 1497.28125 570.429688 1481.679688 578.589844 1469.769531 C 585.117188 1460.25 595.40625 1456.269531 606.078125 1453.121094 C 622.117188 1448.378906 639.425781 1445.980469 654.351562 1441.160156 C 693.316406 1428.558594 753.113281 1367.039062 782.175781 1301.199219 C 803.117188 1253.761719 807.414062 1204.820312 784.753906 1169.699219 C 777.242188 1158.058594 766.488281 1153.359375 753.011719 1155.070312 C 740.710938 1156.621094 721.25 1168.960938 701.894531 1190.96875 C 666.15625 1231.609375 624.199219 1304.53125 614.988281 1353.148438 C 611.234375 1372.988281 613.089844 1389.660156 619.359375 1402.050781 Z M 751.460938 1207.929688 C 746.882812 1211.78125 741.300781 1216.808594 736.929688 1221.78125 C 710.113281 1252.269531 678.953125 1303.328125 665.539062 1344.109375 C 662.390625 1353.679688 660.238281 1362.570312 659.671875 1370.328125 C 659.480469 1372.910156 659.46875 1375.308594 659.742188 1377.5 C 659.859375 1378.410156 660.261719 1379.820312 660.433594 1380.378906 C 661.539062 1381.171875 662.558594 1382.039062 663.484375 1382.96875 C 668.410156 1379.070312 673.460938 1374.570312 678.558594 1369.621094 C 701.800781 1347.070312 725.019531 1315.160156 739.496094 1282.359375 C 751.019531 1256.25 757.941406 1229.601562 751.460938 1207.929688 "/>
<path fill-rule="evenodd" fill="rgb(29.80957%, 23.094177%, 74.804688%)" fill-opacity="1" d="M 629.476562 1386.21875 C 634.929688 1375.878906 631.863281 1362.839844 621.972656 1356.101562 C 600.621094 1341.539062 581.636719 1322.539062 561.796875 1304.851562 C 539.132812 1284.648438 515.394531 1266.121094 487.457031 1255.058594 C 472.601562 1249.191406 450.007812 1244.910156 432.890625 1249.601562 C 416.335938 1254.140625 403.199219 1265.011719 399.1875 1286.261719 C 393.800781 1314.800781 406.09375 1343.078125 428.363281 1366.878906 C 456.757812 1397.230469 501.054688 1420.121094 529.375 1427.191406 C 597.644531 1444.25 689.800781 1430.921875 748.914062 1397.390625 C 797.347656 1369.910156 852.828125 1336.71875 911.277344 1356.398438 C 943.3125 1367.179688 958.800781 1387.121094 971.144531 1411.441406 C 981.054688 1430.96875 989.097656 1453.039062 999.894531 1476.140625 C 1034.371094 1549.941406 1091.28125 1650.089844 1116.429688 1728.449219 C 1123.960938 1751.898438 1128.660156 1773.101562 1128.089844 1790.578125 C 1127.71875 1801.78125 1125.539062 1811.140625 1117.691406 1816.460938 C 1107.03125 1823.679688 1104.238281 1838.199219 1111.460938 1848.859375 C 1118.691406 1859.511719 1133.199219 1862.300781 1143.859375 1855.078125 C 1171.171875 1836.570312 1180.121094 1801.070312 1171.359375 1754.539062 C 1155.609375 1670.828125 1083.550781 1544.980469 1042.160156 1456.390625 C 1031.140625 1432.789062 1022.871094 1410.28125 1012.75 1390.328125 C 995.042969 1355.441406 972.101562 1327.640625 926.160156 1312.179688 C 854.546875 1288.078125 785.234375 1323.148438 725.894531 1356.808594 C 699.265625 1371.910156 664.683594 1382.148438 629.476562 1386.21875 Z M 445.089844 1294.691406 L 445.03125 1294.921875 C 442.285156 1309.460938 451.078125 1322.878906 462.429688 1335.011719 C 484.449219 1358.539062 518.71875 1376.449219 540.683594 1381.929688 C 554.953125 1385.5 570.460938 1387.488281 586.484375 1388.039062 C 567.121094 1373.511719 549.21875 1356.140625 530.753906 1339.671875 C 512.214844 1323.148438 493.144531 1307.488281 470.292969 1298.449219 C 465.117188 1296.398438 458.183594 1294.429688 451.476562 1294.128906 C 449.976562 1294.058594 448.492188 1294.078125 447.0625 1294.25 C 446.496094 1294.320312 445.660156 1294.53125 445.089844 1294.691406 "/>
</svg>
